<?xml version="1.0" standalone="no"?><!-- Generator: Gravit.io --><svg xmlns="http://www.w3.org/2000/svg" xmlns:xlink="http://www.w3.org/1999/xlink" style="isolation:isolate" viewBox="0.5 -5.681 199 61.361" width="199" height="61.361"><path d=" M 7.905 36.156 L 7.623 30.229 L 7.623 30.229 Q 7.623 30.213 7.615 30.196 L 7.615 30.196 L 7.615 30.196 Q 7.606 30.18 7.606 30.163 L 7.606 30.163 L 7.606 30.163 Q 7.606 29.881 7.905 29.881 L 7.905 29.881 L 7.905 29.881 Q 8.055 29.881 8.237 30.03 L 8.237 30.03 L 8.237 30.03 Q 9.134 30.877 10.229 31.375 L 10.229 31.375 L 10.229 31.375 Q 11.325 31.873 12.62 31.873 L 12.62 31.873 L 12.62 31.873 Q 12.969 31.873 13.417 31.798 L 13.417 31.798 L 13.417 31.798 Q 13.865 31.724 14.264 31.549 L 14.264 31.549 L 14.264 31.549 Q 14.662 31.375 14.936 31.093 L 14.936 31.093 L 14.936 31.093 Q 15.21 30.811 15.21 30.379 L 15.21 30.379 L 15.21 30.379 Q 15.21 29.897 14.978 29.516 L 14.978 29.516 L 14.978 29.516 Q 14.745 29.134 14.363 28.868 L 14.363 28.868 L 14.363 28.868 Q 14.214 28.769 13.915 28.536 L 13.915 28.536 L 13.915 28.536 Q 13.616 28.304 13.234 28.005 L 13.234 28.005 L 13.234 28.005 Q 12.853 27.706 12.438 27.366 L 12.438 27.366 L 12.438 27.366 Q 12.022 27.025 11.649 26.718 L 11.649 26.718 L 11.649 26.718 Q 11.275 26.411 10.977 26.162 L 10.977 26.162 L 10.977 26.162 Q 10.678 25.913 10.528 25.78 L 10.528 25.78 L 10.528 25.78 Q 9.549 25.05 8.976 24.303 L 8.976 24.303 L 8.976 24.303 Q 8.403 23.556 8.104 22.742 L 8.104 22.742 L 8.104 22.742 Q 7.806 21.929 7.723 21.057 L 7.723 21.057 L 7.723 21.057 Q 7.64 20.186 7.64 19.206 L 7.64 19.206 L 7.64 19.206 Q 7.64 17.745 8.337 16.434 L 8.337 16.434 L 8.337 16.434 Q 9.034 15.122 10.304 14.151 L 10.304 14.151 L 10.304 14.151 Q 11.574 13.18 13.351 12.607 L 13.351 12.607 L 13.351 12.607 Q 15.127 12.034 17.302 12.034 L 17.302 12.034 L 17.302 12.034 Q 17.567 12.034 18.099 12.092 L 18.099 12.092 L 18.099 12.092 Q 18.63 12.15 19.269 12.283 L 19.269 12.283 L 19.269 12.283 Q 19.908 12.416 20.572 12.648 L 20.572 12.648 L 20.572 12.648 Q 21.236 12.881 21.784 13.246 L 21.784 13.246 L 21.784 13.246 Q 21.967 13.379 22.075 13.512 L 22.075 13.512 L 22.075 13.512 Q 22.183 13.645 22.216 13.927 L 22.216 13.927 L 22.216 13.927 Q 22.299 15.271 22.349 16.575 L 22.349 16.575 L 22.349 16.575 Q 22.398 17.878 22.481 19.339 L 22.481 19.339 L 22.481 19.339 Q 22.481 19.621 22.365 19.712 L 22.365 19.712 L 22.365 19.712 Q 22.249 19.804 22.066 19.804 L 22.066 19.804 L 22.066 19.804 Q 21.884 19.804 21.784 19.704 L 21.784 19.704 L 21.784 19.704 Q 21.303 19.223 20.788 18.758 L 20.788 18.758 L 20.788 18.758 Q 20.273 18.293 19.709 17.936 L 19.709 17.936 L 19.709 17.936 Q 19.145 17.579 18.505 17.363 L 18.505 17.363 L 18.505 17.363 Q 17.866 17.147 17.119 17.147 L 17.119 17.147 L 17.119 17.147 Q 16.671 17.147 16.223 17.222 L 16.223 17.222 L 16.223 17.222 Q 15.774 17.297 15.409 17.496 L 15.409 17.496 L 15.409 17.496 Q 15.044 17.695 14.82 18.044 L 14.82 18.044 L 14.82 18.044 Q 14.596 18.393 14.596 18.924 L 14.596 18.924 L 14.596 18.924 Q 14.596 19.488 14.737 19.903 L 14.737 19.903 L 14.737 19.903 Q 14.878 20.318 15.442 20.684 L 15.442 20.684 L 19.427 23.39 L 19.427 23.39 Q 20.522 24.17 21.203 24.942 L 21.203 24.942 L 21.203 24.942 Q 21.884 25.714 22.266 26.478 L 22.266 26.478 L 22.266 26.478 Q 22.647 27.241 22.789 27.98 L 22.789 27.98 L 22.789 27.98 Q 22.93 28.719 22.93 29.433 L 22.93 29.433 L 22.93 29.433 Q 22.93 30.595 22.548 31.624 L 22.548 31.624 L 22.548 31.624 Q 22.166 32.653 21.502 33.525 L 21.502 33.525 L 21.502 33.525 Q 20.838 34.396 19.95 35.085 L 19.95 35.085 L 19.95 35.085 Q 19.062 35.774 18.049 36.264 L 18.049 36.264 L 18.049 36.264 Q 17.036 36.754 15.949 37.011 L 15.949 37.011 L 15.949 37.011 Q 14.861 37.269 13.815 37.269 L 13.815 37.269 L 13.815 37.269 Q 13.002 37.269 12.213 37.244 L 12.213 37.244 L 12.213 37.244 Q 11.425 37.219 10.678 37.111 L 10.678 37.111 L 10.678 37.111 Q 9.931 37.003 9.233 36.779 L 9.233 36.779 L 9.233 36.779 Q 8.536 36.555 7.905 36.156 L 7.905 36.156 L 7.905 36.156 Z  M 43.051 35.874 L 39.017 37.003 L 39.017 37.003 Q 38.834 37.053 38.535 37.161 L 38.535 37.161 L 38.535 37.161 Q 38.236 37.269 37.954 37.269 L 37.954 37.269 L 37.954 37.269 Q 37.722 37.269 37.547 37.152 L 37.547 37.152 L 37.547 37.152 Q 37.373 37.036 37.373 36.754 L 37.373 36.754 L 37.373 36.654 L 37.373 36.654 Q 37.473 35.758 37.539 35.135 L 37.539 35.135 L 37.539 35.135 Q 37.605 34.513 37.664 34.006 L 37.664 34.006 L 37.664 34.006 Q 37.722 33.5 37.763 32.994 L 37.763 32.994 L 37.763 32.994 Q 37.805 32.487 37.871 31.815 L 37.871 31.815 L 37.871 31.815 Q 37.938 31.143 38.029 30.221 L 38.029 30.221 L 38.029 30.221 Q 38.12 29.3 38.253 27.922 L 38.253 27.922 L 38.253 27.922 Q 38.336 27.075 38.402 26.195 L 38.402 26.195 L 38.402 26.195 Q 38.469 25.315 38.469 24.568 L 38.469 24.568 L 38.469 24.568 Q 38.469 24.07 38.394 23.647 L 38.394 23.647 L 38.394 23.647 Q 38.319 23.224 38.128 22.917 L 38.128 22.917 L 38.128 22.917 Q 37.938 22.609 37.605 22.443 L 37.605 22.443 L 37.605 22.443 Q 37.273 22.277 36.759 22.277 L 36.759 22.277 L 36.759 22.277 Q 36.377 22.277 35.705 22.443 L 35.705 22.443 L 35.705 22.443 Q 35.032 22.609 34.368 22.991 L 34.368 22.991 L 34.368 22.991 Q 33.704 23.373 33.189 23.996 L 33.189 23.996 L 33.189 23.996 Q 32.675 24.618 32.608 25.531 L 32.608 25.531 L 32.608 25.531 Q 32.509 26.76 32.426 27.631 L 32.426 27.631 L 32.426 27.631 Q 32.343 28.503 32.276 29.109 L 32.276 29.109 L 32.276 29.109 Q 32.21 29.715 32.168 30.097 L 32.168 30.097 L 32.168 30.097 Q 32.127 30.479 32.11 30.744 L 32.11 30.744 L 32.11 30.744 Q 32.094 30.811 32.061 31.109 L 32.061 31.109 L 32.061 31.109 Q 32.027 31.408 31.986 31.823 L 31.986 31.823 L 31.986 31.823 Q 31.944 32.238 31.903 32.703 L 31.903 32.703 L 31.903 32.703 Q 31.861 33.168 31.82 33.583 L 31.82 33.583 L 31.82 33.583 Q 31.778 33.998 31.753 34.297 L 31.753 34.297 L 31.753 34.297 Q 31.729 34.596 31.729 34.662 L 31.729 34.662 L 31.729 34.662 Q 31.729 34.795 31.737 34.886 L 31.737 34.886 L 31.737 34.886 Q 31.745 34.978 31.745 35.061 L 31.745 35.061 L 31.745 35.061 Q 31.745 35.193 31.621 35.285 L 31.621 35.285 L 31.621 35.285 Q 31.496 35.376 31.064 35.492 L 31.064 35.492 L 26.665 37.003 L 26.665 37.003 Q 26.482 37.069 26.184 37.169 L 26.184 37.169 L 26.184 37.169 Q 25.885 37.269 25.603 37.269 L 25.603 37.269 L 25.603 37.269 Q 25.37 37.269 25.196 37.152 L 25.196 37.152 L 25.196 37.152 Q 25.021 37.036 25.021 36.754 L 25.021 36.754 L 26.532 19.787 L 26.532 19.787 Q 26.582 19.239 26.657 19.032 L 26.657 19.032 L 26.657 19.032 Q 26.731 18.824 27.03 18.758 L 27.03 18.758 L 27.03 18.758 Q 28.541 18.459 30.135 18.152 L 30.135 18.152 L 30.135 18.152 Q 31.729 17.845 33.239 17.363 L 33.239 17.363 L 33.239 17.363 Q 33.372 17.363 33.397 17.405 L 33.397 17.405 L 33.397 17.405 Q 33.422 17.446 33.422 17.529 L 33.422 17.529 L 33.422 17.529 Q 33.422 17.563 33.414 17.629 L 33.414 17.629 L 33.414 17.629 Q 33.405 17.695 33.364 17.928 L 33.364 17.928 L 33.364 17.928 Q 33.322 18.16 33.248 18.633 L 33.248 18.633 L 33.248 18.633 Q 33.173 19.106 33.04 19.953 L 33.04 19.953 L 33.04 19.953 Q 34.186 19.289 35.19 18.882 L 35.19 18.882 L 35.19 18.882 Q 36.194 18.476 37.083 18.251 L 37.083 18.251 L 37.083 18.251 Q 37.971 18.027 38.751 17.953 L 38.751 17.953 L 38.751 17.953 Q 39.531 17.878 40.212 17.878 L 40.212 17.878 L 40.212 17.878 Q 42.553 17.878 43.615 19.297 L 43.615 19.297 L 43.615 19.297 Q 44.678 20.717 44.678 23.556 L 44.678 23.556 L 44.678 23.556 Q 44.678 23.954 44.661 24.377 L 44.661 24.377 L 44.661 24.377 Q 44.645 24.801 44.595 25.249 L 44.595 25.249 L 43.831 32.388 L 43.831 32.388 Q 43.748 33.085 43.731 33.674 L 43.731 33.674 L 43.731 33.674 Q 43.715 34.264 43.715 35.044 L 43.715 35.044 L 43.715 35.044 Q 43.715 35.177 43.723 35.268 L 43.723 35.268 L 43.723 35.268 Q 43.731 35.359 43.731 35.426 L 43.731 35.426 L 43.731 35.426 Q 43.731 35.575 43.607 35.658 L 43.607 35.658 L 43.607 35.658 Q 43.482 35.741 43.051 35.874 L 43.051 35.874 L 43.051 35.874 Z  M 56.315 37.269 L 56.315 37.269 L 56.315 37.269 Q 53.975 37.269 52.207 36.505 L 52.207 36.505 L 52.207 36.505 Q 50.438 35.741 49.243 34.471 L 49.243 34.471 L 49.243 34.471 Q 48.048 33.201 47.45 31.549 L 47.45 31.549 L 47.45 31.549 Q 46.853 29.897 46.853 28.121 L 46.853 28.121 L 46.853 28.121 Q 46.853 26.345 47.434 24.743 L 47.434 24.743 L 47.434 24.743 Q 48.015 23.141 49.061 21.871 L 49.061 21.871 L 49.061 21.871 Q 50.106 20.601 51.567 19.746 L 51.567 19.746 L 51.567 19.746 Q 53.028 18.891 54.788 18.592 L 54.788 18.592 L 54.788 18.592 Q 55.054 18.575 55.054 18.476 L 55.054 18.476 L 55.054 18.476 Q 55.054 18.293 55.012 18.135 L 55.012 18.135 L 55.012 18.135 Q 54.971 17.978 54.971 17.861 L 54.971 17.861 L 54.971 17.861 Q 54.971 17.679 55.037 17.612 L 55.037 17.612 L 55.037 17.612 Q 55.104 17.546 55.187 17.546 L 55.187 17.546 L 55.187 17.546 Q 58.357 17.546 60.582 18.268 L 60.582 18.268 L 60.582 18.268 Q 62.807 18.99 64.201 20.235 L 64.201 20.235 L 64.201 20.235 Q 65.596 21.48 66.227 23.174 L 66.227 23.174 L 66.227 23.174 Q 66.857 24.867 66.857 26.81 L 66.857 26.81 L 66.857 26.81 Q 66.857 29.283 66.027 31.226 L 66.027 31.226 L 66.027 31.226 Q 65.197 33.168 63.761 34.513 L 63.761 34.513 L 63.761 34.513 Q 62.325 35.857 60.408 36.563 L 60.408 36.563 L 60.408 36.563 Q 58.49 37.269 56.315 37.269 Z  M 53.244 27.938 L 53.244 27.938 L 53.244 27.938 Q 53.244 28.835 53.435 29.715 L 53.435 29.715 L 53.435 29.715 Q 53.626 30.595 54.066 31.309 L 54.066 31.309 L 54.066 31.309 Q 54.506 32.022 55.22 32.462 L 55.22 32.462 L 55.22 32.462 Q 55.934 32.902 56.996 32.902 L 56.996 32.902 L 56.996 32.902 Q 57.76 32.869 58.333 32.562 L 58.333 32.562 L 58.333 32.562 Q 58.905 32.255 59.32 31.765 L 59.32 31.765 L 59.32 31.765 Q 59.735 31.275 60.009 30.661 L 60.009 30.661 L 60.009 30.661 Q 60.283 30.047 60.441 29.391 L 60.441 29.391 L 60.441 29.391 Q 60.599 28.735 60.665 28.104 L 60.665 28.104 L 60.665 28.104 Q 60.731 27.474 60.731 26.959 L 60.731 26.959 L 60.731 26.959 Q 60.731 26.096 60.474 25.266 L 60.474 25.266 L 60.474 25.266 Q 60.217 24.436 59.719 23.805 L 59.719 23.805 L 59.719 23.805 Q 59.221 23.174 58.482 22.784 L 58.482 22.784 L 58.482 22.784 Q 57.743 22.394 56.78 22.394 L 56.78 22.394 L 56.78 22.394 Q 55.784 22.394 55.104 22.983 L 55.104 22.983 L 55.104 22.983 Q 54.423 23.572 54.016 24.436 L 54.016 24.436 L 54.016 24.436 Q 53.609 25.299 53.427 26.253 L 53.427 26.253 L 53.427 26.253 Q 53.244 27.208 53.244 27.938 Z  M 76.702 29.532 L 79.309 19.505 L 79.309 19.505 Q 79.358 19.322 79.591 19.272 L 79.591 19.272 L 79.591 19.272 Q 80.936 18.974 82.347 18.658 L 82.347 18.658 L 82.347 18.658 Q 83.758 18.343 85.053 17.878 L 85.053 17.878 L 85.053 17.878 Q 85.285 17.878 85.285 18.044 L 85.285 18.044 L 86.979 29.366 L 90.149 18.044 L 90.149 18.044 Q 90.216 17.878 90.398 17.878 L 90.398 17.878 L 90.398 17.878 Q 90.448 17.878 90.465 17.886 L 90.465 17.886 L 90.465 17.886 Q 90.481 17.895 90.531 17.895 L 90.531 17.895 L 90.531 17.895 Q 91.776 18.376 93.088 18.683 L 93.088 18.683 L 93.088 18.683 Q 94.399 18.99 95.694 19.272 L 95.694 19.272 L 95.694 19.272 Q 96.01 19.339 96.01 19.638 L 96.01 19.638 L 96.01 19.638 Q 96.01 19.854 95.811 20.302 L 95.811 20.302 L 90.465 35.11 L 90.465 35.11 Q 90.332 35.393 90.232 35.583 L 90.232 35.583 L 90.232 35.583 Q 90.133 35.774 90.033 35.882 L 90.033 35.882 L 90.033 35.882 Q 89.934 35.99 89.817 36.048 L 89.817 36.048 L 89.817 36.048 Q 89.701 36.106 89.535 36.14 L 89.535 36.14 L 89.535 36.14 Q 88.273 36.405 86.979 36.721 L 86.979 36.721 L 86.979 36.721 Q 85.684 37.036 84.289 37.518 L 84.289 37.518 L 84.289 37.518 Q 84.256 37.518 84.239 37.526 L 84.239 37.526 L 84.239 37.526 Q 84.223 37.534 84.206 37.534 L 84.206 37.534 L 84.09 37.534 L 84.09 37.534 Q 84.007 37.534 83.957 37.476 L 83.957 37.476 L 83.957 37.476 Q 83.907 37.418 83.891 37.368 L 83.891 37.368 L 83.891 37.368 Q 83.708 36.654 83.476 35.592 L 83.476 35.592 L 83.476 35.592 Q 83.243 34.529 82.978 33.234 L 82.978 33.234 L 82.978 33.234 Q 82.712 31.939 82.413 30.462 L 82.413 30.462 L 82.413 30.462 Q 82.114 28.984 81.799 27.424 L 81.799 27.424 L 79.69 34.845 L 79.69 34.845 Q 79.607 35.144 79.516 35.334 L 79.516 35.334 L 79.516 35.334 Q 79.425 35.525 79.309 35.633 L 79.309 35.633 L 79.309 35.633 Q 79.192 35.741 79.06 35.791 L 79.06 35.791 L 79.06 35.791 Q 78.927 35.841 78.761 35.874 L 78.761 35.874 L 78.761 35.874 Q 77.499 36.123 76.204 36.447 L 76.204 36.447 L 76.204 36.447 Q 74.909 36.771 73.515 37.252 L 73.515 37.252 L 73.515 37.252 Q 73.481 37.252 73.465 37.26 L 73.465 37.26 L 73.465 37.26 Q 73.448 37.269 73.432 37.269 L 73.432 37.269 L 73.315 37.269 L 73.315 37.269 Q 73.232 37.269 73.174 37.21 L 73.174 37.21 L 73.174 37.21 Q 73.116 37.152 73.116 37.103 L 73.116 37.103 L 73.116 37.103 Q 72.884 36.372 72.585 35.251 L 72.585 35.251 L 72.585 35.251 Q 72.286 34.131 71.946 32.745 L 71.946 32.745 L 71.946 32.745 Q 71.605 31.358 71.24 29.781 L 71.24 29.781 L 71.24 29.781 Q 70.875 28.204 70.493 26.577 L 70.493 26.577 L 70.493 26.577 Q 70.111 24.95 69.738 23.348 L 69.738 23.348 L 69.738 23.348 Q 69.364 21.746 69.016 20.302 L 69.016 20.302 L 69.016 20.302 Q 68.899 20.036 68.883 19.862 L 68.883 19.862 L 68.883 19.862 Q 68.866 19.688 68.866 19.571 L 68.866 19.571 L 68.866 19.571 Q 68.866 19.339 69.132 19.272 L 69.132 19.272 L 69.132 19.272 Q 70.427 18.99 71.821 18.683 L 71.821 18.683 L 71.821 18.683 Q 73.216 18.376 74.461 17.895 L 74.461 17.895 L 74.461 17.895 Q 74.511 17.878 74.61 17.878 L 74.61 17.878 L 74.61 17.878 Q 74.826 17.878 74.843 18.044 L 74.843 18.044 L 76.702 29.532 L 76.702 29.532 Z " fill-rule="evenodd" fill="rgb(172,15,15)" vector-effect="non-scaling-stroke" stroke-width="1" stroke="rgb(255,255,255)" stroke-linejoin="miter" stroke-linecap="square" stroke-miterlimit="3"/><path d=" M 101.007 37.003 L 101.007 36.937 L 101.007 36.937 Q 101.09 35.725 101.173 34.596 L 101.173 34.596 L 101.173 34.596 Q 101.256 33.467 101.322 32.404 L 101.322 32.404 L 101.92 24.568 L 101.92 24.568 Q 102.02 23.672 102.086 22.933 L 102.086 22.933 L 102.086 22.933 Q 102.152 22.194 102.194 21.489 L 102.194 21.489 L 102.194 21.489 Q 102.235 20.783 102.277 20.061 L 102.277 20.061 L 102.277 20.061 Q 102.318 19.339 102.368 18.459 L 102.368 18.459 L 102.368 18.459 Q 101.82 18.442 101.214 18.442 L 101.214 18.442 L 101.214 18.442 Q 100.608 18.442 99.944 18.442 L 99.944 18.442 L 96.74 18.442 L 96.74 18.442 Q 96.558 18.442 96.516 18.301 L 96.516 18.301 L 96.516 18.301 Q 96.475 18.16 96.475 18.044 L 96.475 18.044 L 96.475 17.928 L 98.301 13.13 L 98.284 13.063 L 98.284 13.063 Q 98.284 12.98 98.392 12.922 L 98.392 12.922 L 98.392 12.922 Q 98.5 12.864 98.882 12.831 L 98.882 12.831 L 98.882 12.831 Q 101.173 12.698 103.323 12.574 L 103.323 12.574 L 103.323 12.574 Q 105.473 12.449 107.573 12.35 L 107.573 12.35 L 107.573 12.35 Q 109.673 12.25 111.773 12.15 L 111.773 12.15 L 111.773 12.15 Q 113.873 12.051 116.098 11.968 L 116.098 11.968 L 116.098 11.968 Q 116.297 11.968 116.521 12.018 L 116.521 12.018 L 116.521 12.018 Q 116.745 12.067 116.745 12.383 L 116.745 12.383 L 116.745 12.383 Q 116.745 12.416 116.729 12.449 L 116.729 12.449 L 116.729 12.449 Q 116.712 12.482 116.712 12.516 L 116.712 12.516 L 116.712 12.516 Q 116.446 13.196 116.222 13.811 L 116.222 13.811 L 116.222 13.811 Q 115.998 14.425 115.782 15.022 L 115.782 15.022 L 115.782 15.022 Q 115.566 15.62 115.342 16.234 L 115.342 16.234 L 115.342 16.234 Q 115.118 16.849 114.853 17.529 L 114.853 17.529 L 114.853 17.529 Q 114.836 17.546 114.786 17.687 L 114.786 17.687 L 114.786 17.687 Q 114.736 17.828 114.637 18.002 L 114.637 18.002 L 114.637 18.002 Q 114.537 18.177 114.371 18.326 L 114.371 18.326 L 114.371 18.326 Q 114.205 18.476 113.956 18.492 L 113.956 18.492 L 113.956 18.492 Q 113.873 18.476 113.79 18.476 L 113.79 18.476 L 113.79 18.476 Q 113.707 18.476 113.607 18.476 L 113.607 18.476 L 109.175 18.476 L 109.175 18.476 Q 109.092 19.322 109.017 20.269 L 109.017 20.269 L 109.017 20.269 Q 108.942 21.215 108.843 22.111 L 108.843 22.111 L 107.631 35.077 L 107.631 35.077 Q 107.614 35.227 107.573 35.376 L 107.573 35.376 L 107.573 35.376 Q 107.531 35.525 107.349 35.592 L 107.349 35.592 L 102.65 37.285 L 102.65 37.285 Q 102.468 37.352 102.169 37.451 L 102.169 37.451 L 102.169 37.451 Q 101.87 37.551 101.588 37.551 L 101.588 37.551 L 101.588 37.551 Q 101.355 37.551 101.181 37.435 L 101.181 37.435 L 101.181 37.435 Q 101.007 37.318 101.007 37.003 L 101.007 37.003 L 101.007 37.003 Z  M 130.906 17.745 L 129.877 22.892 L 129.877 22.892 Q 129.528 22.858 129.097 22.817 L 129.097 22.817 L 129.097 22.817 Q 128.665 22.775 128.184 22.775 L 128.184 22.775 L 128.184 22.775 Q 127.453 22.775 126.698 22.9 L 126.698 22.9 L 126.698 22.9 Q 125.942 23.024 125.295 23.39 L 125.295 23.39 L 125.295 23.39 Q 124.647 23.755 124.183 24.394 L 124.183 24.394 L 124.183 24.394 Q 123.718 25.033 123.585 26.046 L 123.585 26.046 L 123.585 26.046 Q 123.469 27.274 123.394 28.063 L 123.394 28.063 L 123.394 28.063 Q 123.319 28.852 123.286 29.358 L 123.286 29.358 L 123.286 29.358 Q 123.253 29.864 123.228 30.171 L 123.228 30.171 L 123.228 30.171 Q 123.203 30.479 123.187 30.744 L 123.187 30.744 L 123.187 30.744 Q 123.187 30.811 123.162 31.109 L 123.162 31.109 L 123.162 31.109 Q 123.137 31.408 123.087 31.807 L 123.087 31.807 L 123.087 31.807 Q 123.037 32.205 122.996 32.67 L 122.996 32.67 L 122.996 32.67 Q 122.954 33.135 122.904 33.533 L 122.904 33.533 L 122.904 33.533 Q 122.854 33.932 122.83 34.23 L 122.83 34.23 L 122.83 34.23 Q 122.805 34.529 122.805 34.596 L 122.805 34.596 L 122.805 34.596 Q 122.805 34.729 122.813 34.82 L 122.813 34.82 L 122.813 34.82 Q 122.821 34.911 122.821 34.994 L 122.821 34.994 L 122.821 34.994 Q 122.821 35.127 122.697 35.218 L 122.697 35.218 L 122.697 35.218 Q 122.572 35.31 122.141 35.426 L 122.141 35.426 L 117.741 37.003 L 117.741 37.003 Q 117.559 37.069 117.26 37.169 L 117.26 37.169 L 117.26 37.169 Q 116.961 37.269 116.679 37.269 L 116.679 37.269 L 116.679 37.269 Q 116.446 37.269 116.272 37.152 L 116.272 37.152 L 116.272 37.152 Q 116.098 37.036 116.098 36.754 L 116.098 36.754 L 117.525 20.302 L 117.525 20.302 Q 117.575 19.754 117.65 19.546 L 117.65 19.546 L 117.65 19.546 Q 117.725 19.339 118.023 19.272 L 118.023 19.272 L 118.023 19.272 Q 119.534 18.974 121.145 18.667 L 121.145 18.667 L 121.145 18.667 Q 122.755 18.359 124.266 17.878 L 124.266 17.878 L 124.266 17.878 Q 124.398 17.878 124.423 17.919 L 124.423 17.919 L 124.423 17.919 Q 124.448 17.961 124.448 18.044 L 124.448 18.044 L 124.448 18.044 Q 124.448 18.077 124.44 18.144 L 124.44 18.144 L 124.44 18.144 Q 124.432 18.21 124.39 18.442 L 124.39 18.442 L 124.39 18.442 Q 124.349 18.675 124.274 19.148 L 124.274 19.148 L 124.274 19.148 Q 124.199 19.621 124.066 20.468 L 124.066 20.468 L 124.066 20.468 Q 124.83 19.87 125.751 19.372 L 125.751 19.372 L 125.751 19.372 Q 126.673 18.874 127.603 18.517 L 127.603 18.517 L 127.603 18.517 Q 128.532 18.16 129.396 17.953 L 129.396 17.953 L 129.396 17.953 Q 130.259 17.745 130.906 17.745 L 130.906 17.745 L 130.906 17.745 Z  M 131.736 29.366 L 131.736 29.366 L 131.736 29.366 Q 131.952 27.092 132.168 24.867 L 132.168 24.867 L 132.168 24.867 Q 132.384 22.643 132.55 20.302 L 132.55 20.302 L 132.55 20.302 Q 132.583 19.754 132.658 19.546 L 132.658 19.546 L 132.658 19.546 Q 132.732 19.339 133.031 19.272 L 133.031 19.272 L 133.031 19.272 Q 134.442 18.99 135.986 18.683 L 135.986 18.683 L 135.986 18.683 Q 137.53 18.376 138.975 17.895 L 138.975 17.895 L 138.975 17.895 Q 139.024 17.878 139.124 17.878 L 139.124 17.878 L 139.124 17.878 Q 139.307 17.878 139.307 18.011 L 139.307 18.011 L 137.813 34.181 L 137.813 34.181 Q 137.763 34.729 137.696 34.936 L 137.696 34.936 L 137.696 34.936 Q 137.63 35.144 137.331 35.21 L 137.331 35.21 L 137.331 35.21 Q 135.92 35.642 134.476 36.173 L 134.476 36.173 L 134.476 36.173 Q 133.031 36.704 131.421 37.252 L 131.421 37.252 L 131.421 37.252 Q 131.371 37.269 131.271 37.269 L 131.271 37.269 L 131.271 37.269 Q 131.089 37.269 131.089 37.103 L 131.089 37.103 L 131.089 37.103 Q 131.089 37.086 131.122 36.654 L 131.122 36.654 L 131.122 36.654 Q 131.155 36.223 131.213 35.542 L 131.213 35.542 L 131.213 35.542 Q 131.271 34.861 131.338 34.015 L 131.338 34.015 L 131.338 34.015 Q 131.404 33.168 131.479 32.321 L 131.479 32.321 L 131.479 32.321 Q 131.554 31.475 131.62 30.694 L 131.62 30.694 L 131.62 30.694 Q 131.687 29.914 131.736 29.366 Z  M 132.981 16.118 L 132.981 16.118 L 132.981 16.118 Q 133.031 15.404 133.056 15.022 L 133.056 15.022 L 133.056 15.022 Q 133.081 14.641 133.098 14.45 L 133.098 14.45 L 133.098 14.45 Q 133.114 14.259 133.114 14.209 L 133.114 14.209 L 133.114 14.209 Q 133.114 14.159 133.123 14.134 L 133.123 14.134 L 133.123 14.134 Q 133.131 14.109 133.139 14.035 L 133.139 14.035 L 133.139 14.035 Q 133.147 13.96 133.164 13.719 L 133.164 13.719 L 133.164 13.719 Q 133.181 13.479 133.214 13.014 L 133.214 13.014 L 133.214 13.014 Q 133.247 12.549 133.313 11.735 L 133.313 11.735 L 133.313 11.735 Q 133.347 11.188 133.421 10.98 L 133.421 10.98 L 133.421 10.98 Q 133.496 10.772 133.795 10.706 L 133.795 10.706 L 133.795 10.706 Q 135.206 10.424 136.75 10.117 L 136.75 10.117 L 136.75 10.117 Q 138.294 9.81 139.738 9.328 L 139.738 9.328 L 139.738 9.328 Q 139.788 9.312 139.888 9.312 L 139.888 9.312 L 139.888 9.312 Q 139.938 9.411 140.021 9.444 L 140.021 9.444 L 140.07 9.478 L 139.705 14.026 L 139.705 14.026 Q 139.655 14.574 139.581 14.79 L 139.581 14.79 L 139.581 14.79 Q 139.506 15.006 139.224 15.056 L 139.224 15.056 L 139.224 15.056 Q 137.813 15.321 136.368 15.637 L 136.368 15.637 L 136.368 15.637 Q 134.924 15.952 133.313 16.268 L 133.313 16.268 L 133.313 16.268 Q 133.264 16.284 133.164 16.284 L 133.164 16.284 L 133.164 16.284 Q 132.981 16.284 132.981 16.118 Z  M 141.133 28.304 L 141.133 28.304 L 141.133 28.304 Q 141.133 26.129 141.938 24.228 L 141.938 24.228 L 141.938 24.228 Q 142.743 22.327 144.163 20.916 L 144.163 20.916 L 144.163 20.916 Q 145.582 19.505 147.516 18.691 L 147.516 18.691 L 147.516 18.691 Q 149.45 17.878 151.725 17.878 L 151.725 17.878 L 151.725 17.878 Q 153.269 17.878 154.364 18.127 L 154.364 18.127 L 154.364 18.127 Q 155.46 18.376 156.157 18.683 L 156.157 18.683 L 156.157 18.683 Q 156.854 18.99 157.178 19.248 L 157.178 19.248 L 157.178 19.248 Q 157.502 19.505 157.502 19.521 L 157.502 19.521 L 157.502 19.521 Q 157.502 19.621 157.427 20.078 L 157.427 20.078 L 157.427 20.078 Q 157.353 20.534 157.261 21.14 L 157.261 21.14 L 157.261 21.14 Q 157.17 21.746 157.095 22.385 L 157.095 22.385 L 157.095 22.385 Q 157.021 23.024 157.021 23.489 L 157.021 23.489 L 157.021 23.489 Q 157.021 23.572 156.971 23.672 L 156.971 23.672 L 156.971 23.672 Q 156.921 23.771 156.705 23.771 L 156.705 23.771 L 156.705 23.771 Q 156.506 23.771 156.124 23.63 L 156.124 23.63 L 156.124 23.63 Q 155.742 23.489 155.186 23.323 L 155.186 23.323 L 155.186 23.323 Q 154.63 23.157 153.908 23.016 L 153.908 23.016 L 153.908 23.016 Q 153.186 22.875 152.306 22.875 L 152.306 22.875 L 152.306 22.875 Q 151.21 22.875 150.33 23.265 L 150.33 23.265 L 150.33 23.265 Q 149.45 23.655 148.819 24.344 L 148.819 24.344 L 148.819 24.344 Q 148.188 25.033 147.848 25.979 L 147.848 25.979 L 147.848 25.979 Q 147.508 26.926 147.508 28.021 L 147.508 28.021 L 147.508 28.021 Q 147.508 29.167 147.865 29.972 L 147.865 29.972 L 147.865 29.972 Q 148.222 30.777 148.819 31.284 L 148.819 31.284 L 148.819 31.284 Q 149.417 31.79 150.197 32.022 L 150.197 32.022 L 150.197 32.022 Q 150.978 32.255 151.841 32.255 L 151.841 32.255 L 151.841 32.255 Q 152.837 32.255 153.85 31.981 L 153.85 31.981 L 153.85 31.981 Q 154.862 31.707 155.759 31.209 L 155.759 31.209 L 155.759 31.209 Q 155.792 31.192 155.892 31.192 L 155.892 31.192 L 155.892 31.192 Q 155.975 31.192 156.016 31.275 L 156.016 31.275 L 156.016 31.275 Q 156.058 31.358 156.058 31.591 L 156.058 31.591 L 156.058 31.591 Q 156.058 32.122 156.058 32.877 L 156.058 32.877 L 156.058 32.877 Q 156.058 33.633 156.049 34.322 L 156.049 34.322 L 156.049 34.322 Q 156.041 35.011 156.024 35.492 L 156.024 35.492 L 156.024 35.492 Q 156.008 35.974 155.991 35.974 L 155.991 35.974 L 155.991 35.974 Q 155.394 36.372 154.696 36.621 L 154.696 36.621 L 154.696 36.621 Q 153.999 36.87 153.26 37.02 L 153.26 37.02 L 153.26 37.02 Q 152.521 37.169 151.774 37.219 L 151.774 37.219 L 151.774 37.219 Q 151.027 37.269 150.33 37.269 L 150.33 37.269 L 150.33 37.269 Q 148.388 37.269 146.711 36.621 L 146.711 36.621 L 146.711 36.621 Q 145.034 35.974 143.797 34.795 L 143.797 34.795 L 143.797 34.795 Q 142.561 33.616 141.847 31.964 L 141.847 31.964 L 141.847 31.964 Q 141.133 30.313 141.133 28.304 Z  M 167.895 11.204 L 167.895 11.204 L 167.297 16.965 L 167.297 16.965 Q 167.181 18.127 167.056 19.322 L 167.056 19.322 L 167.056 19.322 Q 166.932 20.518 166.815 21.613 L 166.815 21.613 L 166.815 21.613 Q 166.699 22.709 166.6 23.639 L 166.6 23.639 L 166.6 23.639 Q 166.5 24.568 166.434 25.166 L 166.434 25.166 L 167.579 23.904 L 169.438 21.729 L 169.438 21.729 Q 169.787 21.331 170.119 20.933 L 170.119 20.933 L 170.119 20.933 Q 170.451 20.534 170.717 20.227 L 170.717 20.227 L 170.717 20.227 Q 170.982 19.92 171.148 19.712 L 171.148 19.712 L 171.148 19.712 Q 171.314 19.505 171.348 19.472 L 171.348 19.472 L 178.021 19.007 L 178.021 19.007 Q 178.071 18.99 178.129 18.99 L 178.129 18.99 L 178.129 18.99 Q 178.188 18.99 178.237 18.99 L 178.237 18.99 L 178.237 18.99 Q 178.52 18.99 178.52 19.14 L 178.52 19.14 L 178.52 19.14 Q 178.52 19.256 178.171 19.654 L 178.171 19.654 L 172.975 25.465 L 172.975 25.465 Q 172.626 25.847 172.153 26.353 L 172.153 26.353 L 172.153 26.353 Q 171.68 26.859 171.099 27.474 L 171.099 27.474 L 173.522 30.362 L 177.706 34.861 L 177.706 34.861 Q 177.756 34.944 177.855 34.986 L 177.855 34.986 L 177.855 34.986 Q 177.955 35.027 178.046 35.061 L 178.046 35.061 L 178.046 35.061 Q 178.138 35.094 178.212 35.135 L 178.212 35.135 L 178.212 35.135 Q 178.287 35.177 178.287 35.26 L 178.287 35.26 L 178.287 35.26 Q 178.287 35.326 178.262 35.359 L 178.262 35.359 L 178.262 35.359 Q 178.237 35.393 178.104 35.492 L 178.104 35.492 L 178.104 35.492 Q 177.955 35.608 177.582 35.824 L 177.582 35.824 L 177.582 35.824 Q 177.208 36.04 176.71 36.306 L 176.71 36.306 L 176.71 36.306 Q 176.212 36.571 175.647 36.845 L 175.647 36.845 L 175.647 36.845 Q 175.083 37.119 174.552 37.343 L 174.552 37.343 L 174.552 37.343 Q 174.021 37.567 173.572 37.708 L 173.572 37.708 L 173.572 37.708 Q 173.124 37.85 172.875 37.85 L 172.875 37.85 L 172.875 37.85 Q 172.676 37.85 172.485 37.75 L 172.485 37.75 L 172.485 37.75 Q 172.294 37.65 172.062 37.385 L 172.062 37.385 L 172.062 37.385 Q 171.746 37.02 171.273 36.43 L 171.273 36.43 L 171.273 36.43 Q 170.8 35.841 170.252 35.135 L 170.252 35.135 L 170.252 35.135 Q 169.704 34.43 169.131 33.674 L 169.131 33.674 L 169.131 33.674 Q 168.559 32.919 168.036 32.23 L 168.036 32.23 L 168.036 32.23 Q 167.513 31.541 167.089 30.985 L 167.089 30.985 L 167.089 30.985 Q 166.666 30.429 166.434 30.097 L 166.434 30.097 L 166.434 30.097 Q 166.351 30.18 166.268 30.221 L 166.268 30.221 L 166.268 30.221 Q 166.185 30.263 166.11 30.329 L 166.11 30.329 L 166.11 30.329 Q 166.035 30.396 165.985 30.487 L 165.985 30.487 L 165.985 30.487 Q 165.936 30.578 165.936 30.744 L 165.936 30.744 L 165.936 30.744 Q 165.936 30.811 165.902 31.118 L 165.902 31.118 L 165.902 31.118 Q 165.869 31.425 165.828 31.848 L 165.828 31.848 L 165.828 31.848 Q 165.786 32.271 165.736 32.753 L 165.736 32.753 L 165.736 32.753 Q 165.687 33.234 165.645 33.658 L 165.645 33.658 L 165.645 33.658 Q 165.604 34.081 165.57 34.388 L 165.57 34.388 L 165.57 34.388 Q 165.537 34.695 165.537 34.762 L 165.537 34.762 L 165.537 34.762 Q 165.537 34.878 165.545 34.953 L 165.545 34.953 L 165.545 34.953 Q 165.554 35.027 165.554 35.094 L 165.554 35.094 L 165.554 35.094 Q 165.554 35.276 165.429 35.368 L 165.429 35.368 L 165.429 35.368 Q 165.305 35.459 164.823 35.592 L 164.823 35.592 L 160.474 37.003 L 160.474 37.003 Q 160.291 37.069 159.992 37.169 L 159.992 37.169 L 159.992 37.169 Q 159.693 37.269 159.411 37.269 L 159.411 37.269 L 159.411 37.269 Q 159.179 37.269 159.004 37.152 L 159.004 37.152 L 159.004 37.152 Q 158.83 37.036 158.83 36.721 L 158.83 36.721 L 160.922 12.798 L 160.922 12.798 Q 160.922 12.715 160.905 12.64 L 160.905 12.64 L 160.905 12.64 Q 160.889 12.565 160.889 12.482 L 160.889 12.482 L 160.889 12.482 Q 160.889 12.333 161.013 12.208 L 161.013 12.208 L 161.013 12.208 Q 161.138 12.084 161.586 11.968 L 161.586 11.968 L 166.251 10.855 L 166.251 10.855 Q 166.434 10.822 166.732 10.706 L 166.732 10.706 L 166.732 10.706 Q 167.031 10.59 167.313 10.59 L 167.313 10.59 L 167.313 10.59 Q 167.529 10.59 167.72 10.689 L 167.72 10.689 L 167.72 10.689 Q 167.911 10.789 167.911 11.071 L 167.911 11.071 L 167.911 11.071 Q 167.911 11.104 167.903 11.138 L 167.903 11.138 L 167.903 11.138 Q 167.895 11.171 167.895 11.204 Z  M 180.13 36.355 L 179.914 31.823 L 179.914 31.823 Q 179.914 31.807 179.906 31.798 L 179.906 31.798 L 179.906 31.798 Q 179.897 31.79 179.897 31.773 L 179.897 31.773 L 179.897 31.773 Q 179.897 31.558 180.13 31.558 L 180.13 31.558 L 180.13 31.558 Q 180.279 31.558 180.396 31.674 L 180.396 31.674 L 180.396 31.674 Q 181.06 32.305 181.915 32.703 L 181.915 32.703 L 181.915 32.703 Q 182.77 33.102 183.766 33.102 L 183.766 33.102 L 183.766 33.102 Q 184.031 33.102 184.38 33.043 L 184.38 33.043 L 184.38 33.043 Q 184.729 32.985 185.044 32.853 L 185.044 32.853 L 185.044 32.853 Q 185.359 32.72 185.567 32.496 L 185.567 32.496 L 185.567 32.496 Q 185.774 32.271 185.774 31.939 L 185.774 31.939 L 185.774 31.939 Q 185.774 31.574 185.592 31.267 L 185.592 31.267 L 185.592 31.267 Q 185.409 30.96 185.11 30.761 L 185.11 30.761 L 185.11 30.761 Q 184.944 30.645 184.529 30.354 L 184.529 30.354 L 184.529 30.354 Q 184.114 30.063 183.641 29.731 L 183.641 29.731 L 183.641 29.731 Q 183.168 29.399 182.745 29.101 L 182.745 29.101 L 182.745 29.101 Q 182.321 28.802 182.155 28.669 L 182.155 28.669 L 182.155 28.669 Q 181.408 28.104 180.968 27.523 L 180.968 27.523 L 180.968 27.523 Q 180.528 26.942 180.296 26.32 L 180.296 26.32 L 180.296 26.32 Q 180.063 25.697 179.997 25.017 L 179.997 25.017 L 179.997 25.017 Q 179.931 24.336 179.931 23.572 L 179.931 23.572 L 179.931 23.572 Q 179.931 22.41 180.545 21.381 L 180.545 21.381 L 180.545 21.381 Q 181.159 20.352 182.164 19.571 L 182.164 19.571 L 182.164 19.571 Q 183.168 18.791 184.446 18.334 L 184.446 18.334 L 184.446 18.334 Q 185.725 17.878 187.053 17.878 L 187.053 17.878 L 187.053 17.878 Q 188.148 17.878 189.211 18.21 L 189.211 18.21 L 189.211 18.21 Q 190.273 18.542 191.187 19.339 L 191.187 19.339 L 191.187 19.339 Q 191.27 20.385 191.303 21.397 L 191.303 21.397 L 191.303 21.397 Q 191.336 22.41 191.402 23.522 L 191.402 23.522 L 191.402 23.522 Q 191.402 23.738 191.303 23.813 L 191.303 23.813 L 191.303 23.813 Q 191.203 23.888 191.07 23.888 L 191.07 23.888 L 191.07 23.888 Q 190.954 23.888 190.871 23.805 L 190.871 23.805 L 190.871 23.805 Q 190.489 23.439 190.091 23.083 L 190.091 23.083 L 190.091 23.083 Q 189.692 22.726 189.252 22.452 L 189.252 22.452 L 189.252 22.452 Q 188.813 22.178 188.314 22.003 L 188.314 22.003 L 188.314 22.003 Q 187.816 21.829 187.252 21.829 L 187.252 21.829 L 187.252 21.829 Q 186.903 21.829 186.555 21.887 L 186.555 21.887 L 186.555 21.887 Q 186.206 21.945 185.924 22.103 L 185.924 22.103 L 185.924 22.103 Q 185.642 22.261 185.467 22.526 L 185.467 22.526 L 185.467 22.526 Q 185.293 22.792 185.293 23.207 L 185.293 23.207 L 185.293 23.207 Q 185.293 23.688 185.409 24.037 L 185.409 24.037 L 185.409 24.037 Q 185.525 24.386 185.957 24.718 L 185.957 24.718 L 189.045 26.81 L 189.045 26.81 Q 189.892 27.391 190.415 27.947 L 190.415 27.947 L 190.415 27.947 Q 190.938 28.503 191.236 29.051 L 191.236 29.051 L 191.236 29.051 Q 191.535 29.599 191.643 30.138 L 191.643 30.138 L 191.643 30.138 Q 191.751 30.678 191.751 31.209 L 191.751 31.209 L 191.751 31.209 Q 191.751 32.703 191.062 33.84 L 191.062 33.84 L 191.062 33.84 Q 190.373 34.978 189.277 35.733 L 189.277 35.733 L 189.277 35.733 Q 188.182 36.488 186.795 36.878 L 186.795 36.878 L 186.795 36.878 Q 185.409 37.269 184.015 37.269 L 184.015 37.269 L 184.015 37.269 Q 182.952 37.269 181.964 37.044 L 181.964 37.044 L 181.964 37.044 Q 180.977 36.82 180.13 36.355 L 180.13 36.355 L 180.13 36.355 Z " fill-rule="evenodd" fill="rgb(0,0,0)" vector-effect="non-scaling-stroke" stroke-width="1" stroke="rgb(255,255,255)" stroke-linejoin="miter" stroke-linecap="square" stroke-miterlimit="3"/></svg>